<svg xmlns="http://www.w3.org/2000/svg" xmlns:xlink="http://www.w3.org/1999/xlink" style="display:none">
  <!-- React Icon -->
  <symbol id="react" viewBox="0 0 569 512">
    <g fill="none" fill-rule="evenodd">
      <g transform="translate(-227, -256)" fill="#58C4DC" fill-rule="nonzero">
        <g transform="translate(227, 256)">
          <path d="M285.5,201 C255.400481,201 231,225.400481 231,255.5 C231,285.599519 255.400481,310 285.5,310 C315.599519,310 340,285.599519 340,255.5 C340,225.400481 315.599519,201 285.5,201" id="Path"></path>
          <path d="M568.959856,255.99437 C568.959856,213.207656 529.337802,175.68144 466.251623,150.985214 C467.094645,145.423543 467.85738,139.922107 468.399323,134.521063 C474.621631,73.0415145 459.808523,28.6686204 426.709856,9.5541429 C389.677085,-11.8291748 337.36955,3.69129898 284.479928,46.0162134 C231.590306,3.69129898 179.282771,-11.8291748 142.25,9.5541429 C109.151333,28.6686204 94.3382249,73.0415145 100.560533,134.521063 C101.102476,139.922107 101.845139,145.443621 102.708233,151.02537 C97.4493791,153.033193 92.2908847,155.161486 87.3331099,157.39017 C31.0111824,182.708821 0,217.765415 0,255.99437 C0,298.781084 39.6220545,336.307301 102.708233,361.003527 C101.845139,366.565197 101.102476,372.066633 100.560533,377.467678 C94.3382249,438.947226 109.151333,483.32012 142.25,502.434597 C153.629683,508.887578 166.52439,512.186771 179.603923,511.991836 C210.956328,511.991836 247.567589,495.487529 284.479928,465.972527 C321.372196,495.487529 358.003528,511.991836 389.396077,511.991836 C402.475265,512.183856 415.36922,508.884856 426.75,502.434597 C459.848667,483.32012 474.661775,438.947226 468.439467,377.467678 C467.897524,372.066633 467.134789,366.565197 466.291767,361.003527 C529.377946,336.347457 569,298.761006 569,255.99437 M389.155214,27.1025182 C397.565154,26.899606 405.877839,28.9368502 413.241569,33.0055186 C436.223966,46.2772304 446.540955,82.2775015 441.522965,131.770345 C441.181741,135.143488 440.780302,138.556788 440.298575,141.990165 C414.066922,134.08804 387.205771,128.452154 360.010724,125.144528 C343.525021,103.224055 325.192524,82.7564475 305.214266,63.9661533 C336.586743,39.7116483 366.032313,27.1025182 389.135142,27.1025182 M378.356498,310.205598 C368.204912,327.830733 357.150626,344.919965 345.237759,361.405091 C325.045049,363.479997 304.758818,364.51205 284.459856,364.497299 C264.167589,364.51136 243.888075,363.479308 223.702025,361.405091 C211.820914,344.919381 200.80007,327.83006 190.683646,310.205598 C180.532593,292.629285 171.306974,274.534187 163.044553,255.99437 C171.306974,237.454554 180.532593,219.359455 190.683646,201.783142 C200.784121,184.229367 211.770999,167.201087 223.601665,150.764353 C243.824636,148.63809 264.145559,147.579168 284.479928,147.591877 C304.772146,147.579725 325.051559,148.611772 345.237759,150.68404 C357.109048,167.14607 368.136094,184.201112 378.27621,201.783142 C388.419418,219.363718 397.644825,237.458403 405.915303,255.99437 C397.644825,274.530337 388.419418,292.625022 378.27621,310.205598 M419.724813,290.127366 C426.09516,307.503536 431.324985,325.277083 435.380944,343.334682 C417.779633,348.823635 399.836793,353.149774 381.668372,356.285142 C388.573127,345.871232 395.263781,335.035679 401.740334,323.778483 C408.143291,312.655143 414.144807,301.431411 419.805101,290.207679 M246.363271,390.377981 C258.848032,391.140954 271.593728,391.582675 284.5,391.582675 C297.406272,391.582675 310.232256,391.140954 322.737089,390.377981 C310.880643,404.583418 298.10766,417.997563 284.5,430.534446 C270.921643,417.999548 258.18192,404.585125 246.363271,390.377981 Z M187.311556,356.244986 C169.137286,353.123646 151.187726,348.810918 133.578912,343.334682 C137.618549,325.305649 142.828222,307.559058 149.174827,290.207679 C154.754833,301.431411 160.736278,312.655143 167.239594,323.778483 C173.74291,334.901824 180.467017,345.864539 187.311556,356.285142 M149.174827,221.760984 C142.850954,204.473938 137.654787,186.794745 133.619056,168.834762 C151.18418,163.352378 169.085653,159.013101 187.211197,155.844146 C180.346585,166.224592 173.622478,176.986525 167.139234,188.210257 C160.65599,199.433989 154.734761,210.517173 149.074467,221.760984 M322.616657,121.590681 C310.131896,120.827708 297.3862,120.385987 284.379568,120.385987 C271.479987,120.385987 258.767744,120.787552 246.242839,121.590681 C258.061488,107.383537 270.801211,93.9691137 284.379568,81.4342157 C297.99241,93.9658277 310.765727,107.380324 322.616657,121.590681 Z M401.70019,188.210257 C395.196875,176.939676 388.472767,166.09743 381.527868,155.68352 C399.744224,158.819049 417.734224,163.151949 435.380944,168.654058 C431.331963,186.680673 426.122466,204.426664 419.785029,221.781062 C414.205023,210.55733 408.203506,199.333598 401.720262,188.230335 M127.517179,131.790423 C122.438973,82.3176579 132.816178,46.2973086 155.778503,33.0255968 C163.144699,28.9632474 171.455651,26.9264282 179.864858,27.1225964 C202.967687,27.1225964 232.413257,39.7317265 263.785734,63.9862316 C243.794133,82.7898734 225.448298,103.270812 208.949132,125.204763 C181.761691,128.528025 154.90355,134.14313 128.661281,141.990165 C128.199626,138.556788 127.778115,135.163566 127.456963,131.790423 M98.4529773,182.106474 C101.54406,180.767925 104.695358,179.429376 107.906872,178.090828 C114.220532,204.735668 122.781793,230.7969 133.498624,255.99437 C122.761529,281.241316 114.193296,307.357063 107.8868,334.058539 C56.7434387,313.076786 27.0971497,284.003505 27.0971497,255.99437 C27.0971497,229.450947 53.1907013,202.526037 98.4529773,182.106474 Z M155.778503,478.963143 C132.816178,465.691432 122.438973,429.671082 127.517179,380.198317 C127.838331,376.825174 128.259842,373.431953 128.721497,369.978497 C154.953686,377.878517 181.814655,383.514365 209.009348,386.824134 C225.500295,408.752719 243.832321,429.233234 263.805806,448.042665 C220.069,481.834331 180.105722,492.97775 155.838719,478.963143 M441.502893,380.198317 C446.520883,429.691161 436.203894,465.691432 413.221497,478.963143 C388.974566,493.017906 348.991216,481.834331 305.274481,448.042665 C325.241364,429.232737 343.566681,408.752215 360.050868,386.824134 C387.245915,383.516508 414.107066,377.880622 440.338719,369.978497 C440.820446,373.431953 441.221885,376.825174 441.563109,380.198317 M461.193488,334.018382 C454.869166,307.332523 446.294494,281.231049 435.561592,255.99437 C446.289797,230.744081 454.857778,204.629101 461.173416,177.930202 C512.216417,198.911955 541.942994,227.985236 541.942994,255.99437 C541.942994,284.003505 512.296705,313.076786 461.153344,334.058539" id="Shape"></path>
        </g>
      </g>
    </g>
  </symbol>
  <!-- Node Icon -->
  <symbol id="node" viewBox="0 0 256 292">
    <defs>
      <linearGradient id="a" x1="68.188%" x2="27.823%" y1="17.487%" y2="89.755%"><stop offset="0%" stop-color="#41873F"/><stop offset="32.88%" stop-color="#418B3D"/><stop offset="63.52%" stop-color="#419637"/><stop offset="93.19%" stop-color="#3FA92D"/><stop offset="100%" stop-color="#3FAE2A"/></linearGradient>
      <linearGradient id="c" x1="43.277%" x2="159.245%" y1="55.169%" y2="-18.306%"><stop offset="13.76%" stop-color="#41873F"/><stop offset="40.32%" stop-color="#54A044"/><stop offset="71.36%" stop-color="#66B848"/><stop offset="90.81%" stop-color="#6CC04A"/></linearGradient>
      <linearGradient id="f" x1="-4.389%" x2="101.499%" y1="49.997%" y2="49.997%"><stop offset="9.192%" stop-color="#6CC04A"/><stop offset="28.64%" stop-color="#66B848"/><stop offset="59.68%" stop-color="#54A044"/><stop offset="86.24%" stop-color="#41873F"/></linearGradient>
      <path id="b" d="M134.923 1.832c-4.344-2.443-9.502-2.443-13.846 0L6.787 67.801C2.443 70.244 0 74.859 0 79.745v132.208c0 4.887 2.715 9.502 6.787 11.945l114.29 65.968c4.344 2.444 9.502 2.444 13.846 0l114.29-65.968c4.344-2.443 6.787-7.058 6.787-11.945V79.745c0-4.886-2.715-9.501-6.787-11.944L134.923 1.832Z"/>
      <path id="e" d="M134.923 1.832c-4.344-2.443-9.502-2.443-13.846 0L6.787 67.801C2.443 70.244 0 74.859 0 79.745v132.208c0 4.887 2.715 9.502 6.787 11.945l114.29 65.968c4.344 2.444 9.502 2.444 13.846 0l114.29-65.968c4.344-2.443 6.787-7.058 6.787-11.945V79.745c0-4.886-2.715-9.501-6.787-11.944L134.923 1.832Z"/>
    </defs>
    <path fill="url(#a)" d="M134.923 1.832c-4.344-2.443-9.502-2.443-13.846 0L6.787 67.801C2.443 70.244 0 74.859 0 79.745v132.208c0 4.887 2.715 9.502 6.787 11.945l114.29 65.968c4.344 2.444 9.502 2.444 13.846 0l114.29-65.968c4.344-2.443 6.787-7.058 6.787-11.945V79.745c0-4.886-2.715-9.501-6.787-11.944L134.923 1.832Z"/>
    <mask id="d" fill="#fff"><use xlink:href="#b"/></mask>
    <path fill="url(#c)" d="M249.485 67.8 134.65 1.833c-1.086-.542-2.443-1.085-3.529-1.357L2.443 220.912c1.086 1.357 2.444 2.443 3.8 3.258l114.834 65.968c3.258 1.9 7.059 2.443 10.588 1.357L252.47 70.515c-.815-1.086-1.9-1.9-2.986-2.714Z" mask="url(#d)"/>
    <mask id="g" fill="#fff"><use xlink:href="#e"/></mask>
    <path fill="url(#f)" d="M249.756 223.898c3.258-1.9 5.701-5.158 6.787-8.687L130.579.204c-3.258-.543-6.787-.272-9.773 1.628L6.786 67.53l122.979 224.238c1.628-.272 3.529-.815 5.158-1.63l114.833-66.239Z" mask="url(#g)"/>
  </symbol>
  
  <!-- CSS Icon -->
  <symbol id="css" viewBox="0 0 1000 1000">
    <path fill="#639" d="M0 0h840a160 160 0 0 1 160 160v680a160 160 0 0 1-160 160H160A160 160 0 0 1 0 840V0Z"/>
    <path fill="#fff" d="M816.54 919.9c-32.39 0-57.16-9.42-74.5-28.35-17.15-19.03-26.08-46.18-26.88-81.64h69.8c.4 31.36 11.42 47.08 33.08 47.08 11.04 0 18.86-3.5 23.37-10.42 4.41-6.9 6.72-17.93 6.72-33.05 0-12.02-3.01-22.04-8.83-29.95a73.2 73.2 0 0 0-29.48-21.14L783.95 750c-23.06-11.02-39.81-24.04-50.14-39.27-10.03-15.13-15.04-36.36-15.04-63.5 0-30.36 8.83-55 26.37-73.94 18.05-18.93 42.62-28.34 74-28.34 30.3 0 53.76 9.31 70.3 27.84 16.85 18.64 25.67 45.28 26.38 80.14h-67.19c.4-11.4-1.9-22.72-6.72-33.06-3.8-7.6-11.23-11.41-22.26-11.41-19.65 0-29.48 11.71-29.48 35.05 0 11.83 2.4 21.04 7.22 28.05A65.18 65.18 0 0 0 822.76 689l24.77 10.92c25.57 11.72 44.02 26.05 55.35 43.38 11.43 17.23 17.05 40.27 17.05 69.12 0 34.56-9.03 61.1-27.38 79.63-18.25 18.53-43.62 27.85-76 27.85Zm-225.42 0c-32.4 0-57.16-9.42-74.51-28.35-17.15-19.03-26.07-46.18-26.87-81.64h69.79c.4 31.36 11.43 47.08 33.1 47.08 11.02 0 18.84-3.5 23.25-10.42 4.52-6.9 6.72-17.93 6.72-33.05 0-12.02-2.9-22.04-8.72-29.95a73.2 73.2 0 0 0-29.48-21.14L558.53 750c-23.07-11.02-39.81-24.04-50.14-39.27-10.03-15.13-15.04-36.36-15.04-63.5 0-30.36 8.82-55 26.37-73.94 18.05-18.93 42.62-28.34 74-28.34 30.29 0 53.75 9.31 70.2 27.84 17.05 18.64 25.77 45.28 26.47 80.14h-67.18c.4-11.4-1.9-22.72-6.72-33.06-3.81-7.6-11.23-11.41-22.26-11.41-19.66 0-29.49 11.71-29.49 35.05 0 11.83 2.41 21.04 7.22 28.05A65.18 65.18 0 0 0 597.33 689l24.77 10.92c25.57 11.72 44.02 26.05 55.36 43.38 11.33 17.23 17.04 40.27 17.04 69.12 0 34.56-9.12 61.1-27.37 79.63-18.25 18.53-43.62 27.85-76.01 27.85Zm-234.75 0c-31.7 0-56.86-8.62-75.51-25.85-18.65-17.12-27.88-42.87-27.88-76.93V648.83c0-33.85 9.83-59.5 29.48-77.13 19.96-17.43 46.13-26.24 78.52-26.24 31.39 0 56.15 9.01 74.5 26.84 18.56 17.93 27.88 44.58 27.88 80.14v13.32h-73.9v-12.92c0-13.72-3.01-23.84-8.83-30.45a26.46 26.46 0 0 0-21.66-10.32c-12.03 0-20.55 4.1-25.37 12.42a79.04 79.04 0 0 0-6.72 36.66v146.26c0 30.55 10.74 46.08 32.1 46.38 10.02 0 17.54-3.61 22.76-10.82a51.74 51.74 0 0 0 7.72-30.46V801.6h73.9v11.42c0 23.74-4.61 43.57-13.94 59.4a88.8 88.8 0 0 1-38.2 35.66 121.46 121.46 0 0 1-54.85 11.82Z"/>
  </symbol>
  <!-- Instagram Icon -->
  <symbol id="instagram" viewBox="0 0 256 256">
    <path fill="#fff" d="M128 23.064c34.177 0 38.225.13 51.722.745 12.48.57 19.258 2.655 23.769 4.408 5.974 2.322 10.238 5.096 14.717 9.575 4.48 4.479 7.253 8.743 9.575 14.717 1.753 4.511 3.838 11.289 4.408 23.768.615 13.498.745 17.546.745 51.723 0 34.178-.13 38.226-.745 51.723-.57 12.48-2.655 19.257-4.408 23.768-2.322 5.974-5.096 10.239-9.575 14.718-4.479 4.479-8.743 7.253-14.717 9.574-4.511 1.753-11.289 3.839-23.769 4.408-13.495.616-17.543.746-51.722.746-34.18 0-38.228-.13-51.723-.746-12.48-.57-19.257-2.655-23.768-4.408-5.974-2.321-10.239-5.095-14.718-9.574-4.479-4.48-7.253-8.744-9.574-14.718-1.753-4.51-3.839-11.288-4.408-23.768-.616-13.497-.746-17.545-.746-51.723 0-34.177.13-38.225.746-51.722.57-12.48 2.655-19.258 4.408-23.769 2.321-5.974 5.095-10.238 9.574-14.717 4.48-4.48 8.744-7.253 14.718-9.575 4.51-1.753 11.289-3.838 23.768-4.408 13.497-.615 17.545-.745 51.723-.745M128 0C93.237 0 88.878.147 75.226.77c-13.625.622-22.93 2.786-31.071 5.95-8.418 3.271-15.556 7.648-22.672 14.764C14.367 28.6 9.991 35.738 6.72 44.155 3.555 52.297 1.392 61.602.77 75.226.147 88.878 0 93.237 0 128c0 34.763.147 39.122.77 52.774.622 13.625 2.785 22.93 5.95 31.071 3.27 8.417 7.647 15.556 14.763 22.672 7.116 7.116 14.254 11.492 22.672 14.763 8.142 3.165 17.446 5.328 31.07 5.95 13.653.623 18.012.77 52.775.77s39.122-.147 52.774-.77c13.624-.622 22.929-2.785 31.07-5.95 8.418-3.27 15.556-7.647 22.672-14.763 7.116-7.116 11.493-14.254 14.764-22.672 3.164-8.142 5.328-17.446 5.95-31.07.623-13.653.77-18.012.77-52.775s-.147-39.122-.77-52.774c-.622-13.624-2.786-22.929-5.95-31.07-3.271-8.418-7.648-15.556-14.764-22.672C227.4 14.368 220.262 9.99 211.845 6.72c-8.142-3.164-17.447-5.328-31.071-5.95C167.122.147 162.763 0 128 0Zm0 62.27C91.698 62.27 62.27 91.7 62.27 128c0 36.302 29.428 65.73 65.73 65.73 36.301 0 65.73-29.428 65.73-65.73 0-36.301-29.429-65.73-65.73-65.73Zm0 108.397c-23.564 0-42.667-19.103-42.667-42.667S104.436 85.333 128 85.333s42.667 19.103 42.667 42.667-19.103 42.667-42.667 42.667Zm83.686-110.994c0 8.484-6.876 15.36-15.36 15.36-8.483 0-15.36-6.876-15.36-15.36 0-8.483 6.877-15.36 15.36-15.36 8.484 0 15.36 6.877 15.36 15.36Z"/>
  </symbol>
  <!-- X (Twitter) Icon -->
  <symbol id="x" viewBox="0 0 1200 1227">
    <path fill="#fff" d="M714.163 519.284 1160.89 0h-105.86L667.137 450.887 357.328 0H0l468.492 681.821L0 1226.37h105.866l409.625-476.152 327.181 476.152H1200L714.137 519.284h.026ZM569.165 687.828l-47.468-67.894-377.686-540.24h162.604l304.797 435.991 47.468 67.894 396.2 566.721H892.476L569.165 687.854v-.026Z"/>
  </symbol>
  <!-- YouTube Icon -->
  <symbol id="youtube" viewBox="0 0 256 180">
    <path d="M250.346 28.075A32.18 32.18 0 0 0 227.69 5.418C207.824 0 127.87 0 127.87 0S47.912.164 28.046 5.582A32.18 32.18 0 0 0 5.39 28.24c-6.009 35.298-8.34 89.084.165 122.97a32.18 32.18 0 0 0 22.656 22.657c19.866 5.418 99.822 5.418 99.822 5.418s79.955 0 99.82-5.418a32.18 32.18 0 0 0 22.657-22.657c6.338-35.348 8.291-89.1-.164-123.134Z" fill="red"/>
    <path fill="#FFF" d="m102.421 128.06 66.328-38.418-66.328-38.418z"/>
  </symbol>
  <!-- whatsapp Icon -->
  <symbol id="whatsapp" viewBox="0 0 256 256">
  <path fill="#25D366" d="M128 0C57.307 0 0 57.307 0 128c0 28.067 9.163 54.067 24.651 75.051L1.459 248.349l47.398-22.531C69.541 239.683 97.549 248 128 248c70.693 0 128-57.307 128-128S198.693 0 128 0Z"/>
  <path fill="#FFF" d="M186.883 168.797c-2.416 6.821-11.989 12.475-19.617 14.099-5.233 1.124-12.083 2.016-35.067-7.527-29.437-12.259-48.409-42.276-49.859-44.219-1.417-1.941-11.947-15.909-11.947-30.353 0-14.445 7.533-21.517 10.276-24.485 2.416-2.679 6.399-3.901 10.276-3.901.832 0 1.573.041 2.248.083 2.416.101 3.624.247 5.208 4.052 1.985 4.811 6.821 16.669 7.399 17.889.584 1.219 1.169 2.877.167 4.485-.584 1.643-1.085 2.381-2.248 3.777-1.169 1.4-2.267 2.473-3.436 3.972-1.064 1.303-2.267 2.705-1.064 5.114.833 2.375 6.015 10.276 12.931 16.669 8.901 8.235 16.402 10.785 18.777 11.947 1.573.767 3.484.584 4.652-.729 1.477-1.676 3.307-4.485 5.158-7.261 1.309-1.983 2.961-2.233 4.693-1.573 1.765.584 11.112 5.233 13.041 6.181 1.933.952 3.208 1.417 3.676 2.233.459.811.459 4.65-1.957 9.163Z"/>
</symbol>
  <!-- LinkedIn Icon -->
  <symbol id="linkedin" viewBox="0 0 256 256">
    <path d="M218.123 218.127h-37.931v-59.403c0-14.165-.253-32.4-19.728-32.4-19.756 0-22.779 15.434-22.779 31.369v60.43h-37.93V95.967h36.413v16.694h.51a39.907 39.907 0 0 1 35.928-19.733c38.445 0 45.533 25.288 45.533 58.186l-.016 67.013ZM56.955 79.27c-12.157.002-22.014-9.852-22.016-22.009-.002-12.157 9.851-22.014 22.008-22.016 12.157-.003 22.014 9.851 22.016 22.008A22.013 22.013 0 0 1 56.955 79.27m18.966 138.858H37.95V95.967h37.97v122.16ZM237.033.018H18.89C8.58-.098.125 8.161-.001 18.471v219.053c.122 10.315 8.576 18.582 18.89 18.474h218.144c10.336.128 18.823-8.139 18.966-18.474V18.454c-.147-10.33-8.635-18.588-18.966-18.453" fill="#0A66C2"/>
  </symbol>
  <!-- GitHub Icon -->
  <symbol id="github" viewBox="0 0 1024 1024">
    <path fill-rule="evenodd" clip-rule="evenodd" d="M8 0C3.58 0 0 3.58 0 8C0 11.54 2.29 14.53 5.47 15.59C5.87 15.66 6.02 15.42 6.02 15.21C6.02 15.02 6.01 14.39 6.01 13.72C4 14.09 3.48 13.23 3.32 12.78C3.23 12.55 2.84 11.84 2.5 11.65C2.22 11.5 1.82 11.13 2.49 11.12C3.12 11.11 3.57 11.7 3.72 11.94C4.44 13.15 5.59 12.81 6.05 12.6C6.12 12.08 6.33 11.73 6.56 11.53C4.78 11.33 2.92 10.64 2.92 7.58C2.92 6.71 3.23 5.99 3.74 5.43C3.66 5.23 3.38 4.41 3.82 3.31C3.82 3.31 4.49 3.1 6.02 4.13C6.66 3.95 7.34 3.86 8.02 3.86C8.7 3.86 9.38 3.95 10.02 4.13C11.55 3.09 12.22 3.31 12.22 3.31C12.66 4.41 12.38 5.23 12.3 5.43C12.81 5.99 13.12 6.7 13.12 7.58C13.12 10.65 11.25 11.33 9.47 11.53C9.76 11.78 10.01 12.26 10.01 13.01C10.01 14.08 10 14.94 10 15.21C10 15.42 10.15 15.67 10.55 15.59C13.71 14.53 16 11.53 16 8C16 3.58 12.42 0 8 0Z" transform="scale(64)" fill="#fff"/>
  </symbol>
  <!-- Strava Icon -->
  <symbol id="strava" width="512" height="512" style="enable-background:new 0 0 512 512"><path d="M226.172 26.001 90.149 288.345h80.141l55.882-104.309 55.433 104.309h79.511z" style="fill:#f50"/><path d="m361.116 288.345-39.441 79.241-40.07-79.241h-60.734l100.804 197.654 100.176-197.654z" style="fill:#ffaf8a"/></symbol>
  <!-- Twitch Icon -->
  <symbol id="twitch" viewBox="0 0 2400 2800">
    <path fill="#fff" d="m2200 1300-400 400h-400l-350 350v-350H600V200h1600z"/>
    <g fill="#9146ff">
      <path d="M500 0 0 500v1800h600v500l500-500h400l900-900V0H500zm1700 1300-400 400h-400l-350 350v-350H600V200h1600v1100z"/>
      <path d="M1700 550h200v600h-200zm-550 0h200v600h-200z"/>
    </g>
  </symbol>
  <!-- Verified Icon -->
  <symbol id="verified" viewBox="0 0 20 20">
    <path fill-rule="evenodd" d="M10 18a8 8 0 100-16 8 8 0 000 16zm3.707-8.707a1 1 0 00-1.414-1.414L9 11.172l-1.293-1.293a1 1 0 00-1.414 1.414l2 2a1 1 0 001.414 0l4-4z" clip-rule="evenodd" />
  </symbol>

  <!-- Python Logo -->
  <symbol id="python" viewBox="0 0 256 255">
    <defs>
      <linearGradient id="pyA" x1="12.959%" x2="79.639%" y1="12.039%" y2="78.201%">
        <stop offset="0%" stop-color="#387EB8"/>
        <stop offset="100%" stop-color="#366994"/>
      </linearGradient>
      <linearGradient id="pyB" x1="19.128%" x2="90.742%" y1="20.579%" y2="88.429%">
        <stop offset="0%" stop-color="#FFE052"/>
        <stop offset="100%" stop-color="#FFC331"/>
      </linearGradient>
    </defs>
    <path fill="url(#pyA)" d="M126.916.072c-64.832 0-60.784 28.115-60.784 28.115l.072 29.128h61.868v8.745H41.631S.145 61.355.145 126.77c0 65.417 36.21 63.097 36.21 63.097h21.61v-30.356s-1.165-36.21 35.632-36.21h61.362s34.475.557 34.475-33.319V33.97S194.67.072 126.916.072zM92.802 19.66a11.12 11.12 0 0 1 11.13 11.13 11.12 11.12 0 0 1-11.13 11.13 11.12 11.12 0 0 1-11.13-11.13 11.12 11.12 0 0 1 11.13-11.13z"/>
    <path fill="url(#pyB)" d="M128.757 254.126c64.832 0 60.784-28.115 60.784-28.115l-.072-29.127H127.6v-8.745h86.441s41.486 4.705 41.486-60.712c0-65.416-36.21-63.096-36.21-63.096h-21.61v30.355s1.165 36.21-35.632 36.21h-61.362s-34.475-.557-34.475 33.32v56.013s-5.235 33.897 62.518 33.897zm34.114-19.586a11.12 11.12 0 0 1-11.13-11.13 11.12 11.12 0 0 1 11.13-11.131 11.12 11.12 0 0 1 11.13 11.13 11.12 11.12 0 0 1-11.13 11.13z"/>
  </symbol>

  <!-- Java Logo -->
  <symbol id="java" viewBox="0 0 256 346">
    <path fill="#5382A1" d="M82.554 267.473s-13.198 7.675 9.393 10.272c27.369 3.122 41.356 2.675 71.517-3.034 0 0 7.93 4.972 19.003 9.279-67.611 28.977-153.019-1.679-99.913-16.517M74.292 229.659s-14.803 10.958 7.805 13.296c29.236 3.016 52.324 3.263 92.276-4.43 0 0 5.526 5.602 14.215 8.666-81.747 23.904-172.798 1.885-114.296-17.532"/>
    <path fill="#E76F00" d="M143.942 165.515c16.66 19.18-4.377 36.44-4.377 36.44s42.301-21.837 22.874-49.183c-18.144-25.5-32.059-38.172 43.268-81.858 0 0-118.238 29.53-61.765 94.6"/>
    <path fill="#5382A1" d="M233.364 295.442s9.767 8.047-10.757 14.273c-39.026 11.823-162.432 15.393-196.714.471-12.323-5.36 10.787-12.8 18.056-14.362 7.581-1.644 11.914-1.337 11.914-1.337-13.705-9.655-88.583 18.957-38.034 27.15 137.853 22.356 251.292-10.066 215.535-26.195M88.9 190.48s-62.771 14.91-22.228 20.323c17.118 2.292 51.243 1.774 83.03-.89 25.978-2.19 52.063-6.85 52.063-6.85s-9.16 3.923-15.787 8.448c-63.744 16.765-186.886 8.966-151.435-8.183 29.981-14.492 54.358-12.848 54.358-12.848M201.506 253.422c64.8-33.672 34.839-66.03 13.927-61.67-5.126 1.066-7.411 1.99-7.411 1.99s1.903-2.98 5.537-4.27c41.37-14.545 73.187 42.897-13.355 65.647 0 .001 1.003-.895 1.302-1.697"/>
    <path fill="#E76F00" d="M162.439.371s35.887 35.9-34.037 91.101c-56.071 44.282-12.786 69.53-.023 98.377-32.73-29.53-56.75-55.526-40.635-79.72C111.395 74.612 176.918 57.393 162.439.37"/>
    <path fill="#5382A1" d="M95.268 344.665c62.199 3.982 157.712-2.209 159.974-31.64 0 0-4.348 11.158-51.404 20.018-53.088 9.99-118.564 8.824-157.399 2.421.001 0 7.95 6.58 48.83 9.201"/>
  </symbol>

  <!-- JavaScript Logo -->
  <symbol id="javascript" viewBox="0 0 256 256">
    <path fill="#F7DF1E" d="M0 0h256v256H0V0z"/>
    <path d="m67.312 213.932 19.59-11.856c3.78 6.701 7.218 12.371 15.465 12.371 7.905 0 12.89-3.092 12.89-15.12v-81.798h24.057v82.138c0 24.917-14.606 36.259-35.916 36.259-19.245 0-30.416-9.967-36.087-21.996M152.381 211.354l19.588-11.341c5.157 8.421 11.859 14.607 23.715 14.607 9.969 0 16.325-4.984 16.325-11.858 0-8.248-6.53-11.17-17.528-15.98l-6.013-2.58c-17.357-7.387-28.87-16.667-28.87-36.257 0-18.044 13.747-31.792 35.228-31.792 15.294 0 26.292 5.328 34.196 19.247L210.29 147.43c-4.125-7.389-8.591-10.31-15.465-10.31-7.046 0-11.514 4.468-11.514 10.31 0 7.217 4.468 10.14 14.778 14.608l6.014 2.577c20.45 8.765 31.963 17.7 31.963 37.804 0 21.654-17.012 33.51-39.867 33.51-22.339 0-36.774-10.654-43.819-24.574"/>
  </symbol>

  <!-- PHP Logo -->
  <symbol id="php" viewBox="0 0 256 135">
    <path fill="#8993BE" d="M64.026 96.076c33.676 0 64.026-14.177 64.026-31.926 0-17.75-30.35-31.926-64.026-31.926S0 46.399 0 64.15c0 17.75 30.35 31.926 64.026 31.926Z"/>
    <path fill="#232531" d="M75.357 62.253c3.621 0 6.244-.865 7.868-2.593 1.624-1.728 2.137-4.488 1.54-8.282-.607-3.851-2.097-6.593-4.472-8.226-2.374-1.632-5.94-2.448-10.698-2.448h-7.517l3.701 21.549h9.578Zm-37.44 25.524L45.103 35h24.77c6.982 0 12.426 1.391 16.332 4.174 3.905 2.782 6.285 6.944 7.14 12.484.613 3.891.355 7.222-.774 9.992-1.128 2.77-3.03 5.029-5.706 6.774 3.085 1.014 5.334 2.622 6.747 4.823 1.413 2.201 1.925 5.088 1.534 8.66-.549 3.477-1.693 6.58-3.432 9.306-1.739 2.725-3.913 4.936-6.522 6.63-2.61 1.696-5.977 2.961-10.101 3.796-4.125.834-8.538 1.251-13.241 1.251H35.79l2.127-12.366Zm20.421-11.233 1.619 9.428h8.517c3.237 0 5.674-.446 7.312-1.338 1.638-.892 2.639-2.552 3.003-4.982.364-2.429-.101-4.066-1.394-4.909-1.293-.843-3.623-1.265-6.989-1.265H58.34l.427 2.485.038.581h-.466Zm45.345-14.291-2.127 12.366h21.787l-2.127 12.366h-21.787l-2.127 12.366h-14.52l6.382-37.098h36.647l-2.128 12.366h-22.127l.127-.734ZM200.874 62.253c3.622 0 6.245-.865 7.869-2.593 1.624-1.728 2.137-4.488 1.54-8.282-.607-3.851-2.097-6.593-4.472-8.226-2.374-1.632-5.94-2.448-10.698-2.448h-7.517l3.701 21.549h9.577Zm-37.44 25.524L170.62 35h24.77c6.982 0 12.426 1.391 16.332 4.174 3.905 2.782 6.285 6.944 7.14 12.484.613 3.891.355 7.222-.774 9.992-1.128 2.77-3.03 5.029-5.706 6.774 3.085 1.014 5.334 2.622 6.747 4.823 1.413 2.201 1.925 5.088 1.534 8.66-.549 3.477-1.693 6.58-3.432 9.306-1.739 2.725-3.913 4.936-6.522 6.63-2.61 1.696-5.977 2.961-10.101 3.796-4.125.834-8.538 1.251-13.241 1.251h-31.053l2.127-12.366Zm20.421-11.233 1.619 9.428h8.517c3.237 0 5.674-.446 7.312-1.338 1.638-.892 2.639-2.552 3.003-4.982.364-2.429-.101-4.066-1.394-4.909-1.293-.843-3.623-1.265-6.989-1.265h-12.195l.427 2.485.038.581h-.466Z"/>
  </symbol>

  <!-- C# Logo -->
  <symbol id="csharp" viewBox="0 0 256 288">
    <path fill="#9B4F96" d="M255.569 84.452c-.002-4.83-1.035-9.098-3.124-12.76-2.052-3.603-5.125-6.622-9.247-9.009-34.025-19.619-68.083-39.178-102.097-58.817-9.17-5.294-18.061-5.101-27.163.269C100.395 12.39 32.59 51.237 12.385 62.94 4.064 67.757.015 75.129.013 84.711 0 124.166.013 163.62 0 203.076c.002 4.724.991 8.909 2.988 12.517 2.053 3.711 5.169 6.813 9.386 9.254 20.206 11.703 88.02 50.547 101.56 58.536 9.106 5.373 17.997 5.565 27.17.269 34.015-19.64 68.075-39.198 102.105-58.817 4.217-2.44 7.333-5.544 9.386-9.252 1.994-3.608 2.985-7.793 2.987-12.518 0 0 0-78.889-.013-118.613"/>
    <path fill="#fff" d="M128.182 143.509c0-5.477.725-10.79 2.175-15.939 1.449-5.148 3.585-9.798 6.406-13.947 2.821-4.149 6.203-7.802 10.145-10.959 3.941-3.157 8.487-5.646 13.636-7.467 5.149-1.82 10.686-2.73 16.611-2.73 7.755 0 14.843 1.739 21.264 5.216 6.42 3.478 11.503 8.405 15.252 14.784l-16.434 9.49c-2.314-3.869-5.239-6.823-8.773-8.862-3.535-2.038-7.578-3.057-12.129-3.057-3.677 0-7.079.751-10.205 2.254-3.126 1.503-5.83 3.582-8.111 6.237s-4.063 5.783-5.337 9.341c-1.274 3.558-1.911 7.422-1.911 11.593 0 4.171.637 8.036 1.911 11.594 1.274 3.558 3.056 6.686 5.337 9.341 2.281 2.655 4.985 4.734 8.111 6.237 3.126 1.503 6.528 2.254 10.205 2.254 4.551 0 8.594-1.019 12.129-3.057 3.534-2.039 6.459-4.993 8.773-8.862l16.434 9.49c-3.749 6.379-8.832 11.306-15.252 14.784-6.421 3.478-13.509 5.216-21.264 5.216-5.925 0-11.462-.91-16.611-2.73-5.149-1.821-9.695-4.31-13.636-7.467-3.942-3.157-7.324-6.81-10.145-10.959-2.821-4.149-4.957-8.798-6.406-13.947-1.45-5.149-2.175-10.462-2.175-15.939M225 110v6h-6v-6h-6v6h-6v6h6v6h-6v6h6v6h6v-6h6v6h6v-6h6v-6h-6v-6h6v-6h-6v-6h-6Zm0 18h-6v-6h6v6Z"/>
  </symbol>

  <!-- SQL Logo -->
  <symbol id="sql" viewBox="0 0 32 32">
    <path fill="#00618A" d="M15.8 14.3c-.3 0-.4.1-.4.3v1.8c0 .1.1.3.4.3.6 0 .9-.2.9-.6v-1.2c0-.4-.3-.6-.9-.6zm10.4-6.9H5.8c-.4 0-.8.4-.8.8v15.6c0 .4.4.8.8.8h20.4c.4 0 .8-.4.8-.8V8.2c0-.4-.4-.8-.8-.8zM12 18.7c-.9 0-1.3-.3-1.3-.8v-4.7c0-.4.4-.8 1.3-.8.9 0 1.3.3 1.3.8v4.7c0 .5-.4.8-1.3.8zm6.1 0c-.9 0-1.3-.3-1.3-.8v-4.7c0-.4.4-.8 1.3-.8.9 0 1.3.3 1.3.8v4.7c0 .5-.4.8-1.3.8zm6.1 0c-.9 0-1.3-.3-1.3-.8v-4.7c0-.4.4-.8 1.3-.8.9 0 1.3.3 1.3.8v4.7c0 .5-.4.8-1.3.8z"/>
  </symbol>

  <!-- MySQL Logo -->
  <symbol id="mysql" viewBox="0 0 512 512">
    <path fill="#00758F" d="M260.7 430.3c-1.7 0-2.8.2-4 .4v-.2h.2c.8-1.5 2.1-2.6 3.2-4 .8-1.1 1.5-2.1 2.3-3.2l.2.2c-1.4 1.3-1.9 3.2-1.9 4.8zM237.2 432c-1.7-.1-2.9.2-4.1.4v-.2h.2c.8-1.5 2.1-2.6 3.2-4 .8-1.1 1.5-2.1 2.3-3.2l.2.2c-1.4 1.3-1.8 3.2-1.8 4.8v2z"/>
    <path fill="#00758F" d="M451.5 355.5v.3l-3.4 8.2c-2.1 5-4.4 9.8-6.8 14.6-2.4 4.7-5 9.3-7.8 13.8-2.8 4.5-5.8 8.8-9 13-3.2 4.2-6.6 8.2-10.2 12-3.6 3.8-7.4 7.4-11.4 10.8-4 3.4-8.2 6.6-12.6 9.6-4.4 3-8.9 5.8-13.6 8.4-4.7 2.6-9.5 5-14.4 7.2-4.9 2.2-9.9 4.2-15 6-5.1 1.8-10.3 3.4-15.6 4.8-5.3 1.4-10.7 2.6-16.1 3.6-5.4 1-10.9 1.8-16.4 2.4-5.5.6-11.1 1-16.7 1.2-5.6.2-11.2.2-16.8 0-5.6-.2-11.2-.6-16.8-1.2-5.6-.6-11.1-1.4-16.6-2.4-5.6-.6-11-2.2-16.4-3.6-5.4-1.4-10.8-3-16-4.8-5.3-1.8-10.4-3.8-15.5-6-5.1-2.2-10-4.6-14.9-7.2-4.9-2.6-9.6-5.4-14.2-8.4-4.6-3-9-6.2-13.3-9.6-4.3-3.4-8.4-7-12.3-10.8-3.9-3.8-7.6-7.8-11.1-12-3.5-4.2-6.8-8.5-9.9-13-3.1-4.5-6-9.1-8.7-13.8-2.7-4.7-5.2-9.6-7.5-14.6L60.5 356v-.4c13.5 8.1 27.7 15.1 42.5 21.1 14.8 6 30.1 11 45.8 15 15.7 4 31.7 7 47.9 9 16.2 2 32.6 3 49 3s32.8-1 49-3c16.2-2 32.2-5 47.9-9 15.7-4 31-9 45.8-15 14.8-5.9 29-12.9 42.5-21.1h.6z"/>
    <path fill="#F29111" d="m81.1 257.5-.2.2c-3.5 7-3.5 15.4.1 24 0 0-.4 2 1.2 3 1.6 1 2.1-1.2 2.1-1.2 1.6-3.1 2.7-6.1 3.1-9 1.5 5.2 5.6 8.6 10.5 11.1-5.5-11.2-2.7-20.5-.2-29 2.3-7.7 1-15.5-8.3-21.6 1.7 4.1 2.7 8.3 2.7 12.7 0 7.3-3 11.7-7 17.2-2.4-4.3-4-8.9-4-13.9v-.5z"/>
    <path fill="#F29111" d="M506.4 270.6c.1-2.9.1-5.8.2-8.7v-7.7c.1-5.1 0-10.2-.4-15.3-.4-5.1-1.1-10.1-1.9-15.1-.9-5-2-9.9-3.4-14.7-1.4-4.8-3-9.5-4.8-14.1-1.5-3.8-3.2-7.6-5-11.2-1.9-3.7-3.9-7.3-6.1-10.7-11.5-18.1-27.3-33.4-46.1-44.7l.5-.5c13.8-10.3 27.5-20.7 41.3-31 .6-.4 1.3-1 1.5-1.8.2-.7-.1-1.5-.2-2.2-.3-1.8-1-3.5-1.8-5.1-1-2-2.2-3.9-3.6-5.7-.9-1.3-1.9-2.6-3.1-3.7-.8-.8-1.7-1.5-2.5-2.3-.4-.3-.7-.6-1.1-.8-.3-.1-.7-.2-1-.1l-.5.3c-4.6 2.4-9 5.1-13.2 8.1-4.3 3.1-8.3 6.4-12.2 9.9-16.9 15.3-31.1 32.9-41.6 52.9-1.8 3.4-3.4 7-4.8 10.6-.5 1.2-1.1 2.5-1.6 3.7-.1.2-.1.3-.2.5l-.3.9-1.1-.4c-16.7-6.6-34.1-11.3-51.8-13.9-16.7-2.5-33.6-3-50.5-1.6-14.8 1.2-29.5 3.7-43.9 7.4-15.2 3.9-30.1 8.9-44.4 15.3-7.3 3.3-14.4 6.9-21.3 11-7.7 4.5-15.1 9.5-22.2 14.8-13.4 10-25.6 21.3-36.5 33.9-5.4 6.3-10.4 12.9-14.9 19.9-1.1 1.7-2.1 3.4-3 5.2l-.2.3-.1.2c-.5 1-1.1 1.9-1.7 2.8-5.4 8.1-14.9 8.2-21.5 6.6-4.2-1-7.9-2.9-11.2-5.5-6.8-5.4-11.2-13-14.7-20.9-.6-1.3-1.1-2.6-1.7-4l-.9-2.1c-.2-.5-.3-.9-.5-1.4-.3-.5-.6-.9-.9-1.4-.7-1-1.5-1.9-2.2-2.9-3.5-4.2-7.1-8.3-10.6-12.5-2.3-2.7-4.6-5.4-7-8-3.1-3.3-6.3-6.5-10-9-2.8-1.9-5.9-3.5-9.1-4.3-3.3-.8-6.7-1-10.1-.6-3.9.4-7.6 1.7-11 3.6-1.7 1-3.4 2.1-4.9 3.4-3.1 2.5-5.8 5.5-8.1 8.8-4.7 6.7-7.8 14.3-10.1 22.2-2.3 7.9-3.8 16.1-4.6 24.3-.6 6.2-.8 12.5-.8 18.7.1 6.3.5 12.6 1.3 18.9 1.6 12.5 4.5 24.8 9.6 36.3 2.6 5.7 5.8 11.1 9.8 16 3.3 4 7.1 7.6 11.3 10.6 4.9 3.5 10.5 6.1 16.3 7.5 2.9.7 5.9 1.1 9 1.2 3.1.1 6.1-.2 9.1-1 3-.7 5.9-2 8.4-3.8 2.5-1.8 4.7-4 6.4-6.5 3.4-5.1 4.9-11.2 4.5-17.3-.4-6.1-2.4-12-5.6-17.2l-.3-.4c9.4 13.8 15.3 29.9 16.8 46.8v.2c0 .1-.1.1-.1.2l-.1.9c-.4 2.9-.7 5.8-.9 8.6-.2 2.9-.3 5.8-.2 8.7 0 2.9.2 5.8.6 8.7.4 2.9.9 5.7 1.6 8.5 1.4 5.7 3.4 11.2 6.1 16.4 1.3 2.6 2.8 5.1 4.5 7.4 1.7 2.3 3.5 4.4 5.6 6.3 4 3.9 8.6 6.9 13.6 9 5 2.1 10.3 3.3 15.7 3.5 5.4.2 10.7-.6 15.9-2.2 5.1-1.6 10-4.1 14.3-7.4 8.7-6.6 15.4-15.6 19.9-25.7 4.5-10.1 7-21 8.8-31.8l-.5.2c-6.5 2.4-13.2 4.3-20 5.9-3.4.8-6.8 1.5-10.2 2.1-3.4.6-6.9 1.2-10.3 1.7-3.5.5-7 .9-10.5 1.3-3.5.4-7 1-10.5 1.2h-.7l-.2-.1c-.8-.1-1.6-.7-1.7-1.5-.2-.8.1-1.6.7-2.1.3-.3.7-.4 1.1-.5h.2c2.9-.2 5.8-.6 8.7-1.1 2.9-.5 5.8-1 8.7-1.6 5.8-1.2 11.5-2.7 17.1-4.5 11.3-3.6 22.2-8.4 32.6-14.2.5-.3 1.1-.6 1.6-.9l.3-.1c.9-.2 1.7.4 1.9 1.2.1.5 0 1-.2 1.5-.1.2-.2.3-.3.5-1.4 1.9-2.9 3.7-4.4 5.5-1.5 1.8-3.1 3.5-4.7 5.1-3.3 3.4-6.7 6.7-10.3 9.8-7.2 6.2-14.8 11.9-22.7 17.2l-.7.4c-.4.3-.9.5-1.4.7l-.9.5c-.4.4-.5 1.1-.2 1.6.3.5.9.8 1.5.7l.8-.2 1-.3 7.7-2.4c5.1-1.6 10.2-3.3 15.3-5.1 10.1-3.6 20.1-7.8 29.7-12.5 19.3-9.5 37.5-21.4 53.7-35.6 16.2-14.2 30.4-30.5 42.2-48.5 3-4.5 5.8-9.1 8.4-13.8 1.3-2.4 2.5-4.8 3.7-7.2l.4-.9.2-.3.3.2 2.4 1.5c3.2 2 6.5 3.9 9.8 5.7 6.7 3.6 13.6 6.8 20.7 9.7 14.2 5.8 28.9 10.3 43.9 13.6 7.5 1.6 15.1 2.9 22.7 3.7 7.6.9 15.3 1.3 23 1.3-.1 4.2-.5 8.4-1.1 12.6-.3 2.1-.7 4.1-1.2 6.2-.2 1-.5 2.1-.7 3.1l-.3 1.1-.1.4-.2.8c-.2 1-.3 2.1-.3 3.2.1 1 .3 2.1.9 3 1.1 1.8 3.1 2.9 5.2 3.1 2.1.2 4.2-.4 5.9-1.8 1.7-1.3 2.9-3.2 3.4-5.3.5-2.1 1-4.3 1.4-6.4.4-2.1.8-4.3 1.1-6.4.7-4.3 1.2-8.6 1.6-12.9.4-4.3.6-8.7.7-13 .1-8.7-.3-17.4-1.3-26.1-.9-8.6-2.3-17.2-4.1-25.7-1.8-8.5-4.1-16.8-6.8-25.1-2.7-8.2-5.8-16.3-9.3-24.2-3.5-7.9-7.3-15.6-11.5-23.1-4.2-7.5-8.7-14.9-13.5-22-4.8-7.1-10-14.1-15.4-20.8-2.7-3.3-5.5-6.6-8.4-9.8-2.9-3.2-5.8-6.3-8.9-9.3l-1.1-1.1-.6-.5-.3-.3h.1c.4 0 .7.1 1.1.2.7.2 1.4.5 2.1.7 1.4.5 2.7 1.1 4 1.7 2.6 1.2 5.2 2.6 7.7 4.1 5 2.9 9.8 6.2 14.4 9.8 4.6 3.6 8.9 7.4 13.1 11.5 8.3 8.2 15.7 17.2 22.1 26.8 1.6 2.4 3.1 4.9 4.6 7.4.7 1.3 1.4 2.5 2.1 3.8l1 1.9.5 1c.2.3.3.7.5 1 3.1 6.3 6.1 12.7 8.8 19.2 1.4 3.3 2.7 6.6 3.9 9.9 1.2 3.3 2.4 6.7 3.5 10.1 4.2 13.6 7.3 27.6 9.4 41.8.5 3.5.9 7.1 1.3 10.6.4 3.5 4 7.3 4.2 10.8z"/>
  </symbol>

  <!-- MongoDB Logo -->
  <symbol id="mongodb" viewBox="0 0 256 256">
    <path d="M248.195 127.975c-14.475-63.455-49.893-85.212-53.8-92.895-3.259-4.837-6.283-13.652-6.283-13.652l-.636 40.877c0 .387-37.452 31.276-40.32 99.507-2.867 68.232 34.097 105.757 39.456 111.017 3.769 3.329 8.307 1.181 10.577-.396 8.307-7.78 37.452-35.145 44.962-117.182.738-8.521 6.044-27.275 6.044-27.275" fill="#01EC64"/>
    <path d="M248.195 127.975s-5.477 18.754-6.044 27.275c-7.51 82.037-36.655 109.403-44.962 117.182-2.27 1.577-6.808 3.724-10.577.396-5.359-5.26-42.323-42.785-39.456-111.017 2.868-68.231 40.32-99.12 40.32-99.507l.636-40.877s3.024 8.815 6.283 13.652c3.907 7.683 39.325 29.44 53.8 92.895" fill="#10AA50"/>
    <path d="M197.206 244.832s-4.046 2.432-6.674 1.182c-1.676-.363-2.634-1.61-3.221-2.643 1.862 3.883 5.76 5.371 7.412 5.715 3.769 0 6.283-1.577 6.283-1.577l-3.8-2.676Z" fill="#B8C4C2"/>
    <path d="M187.416 130.75c0 26.536-5.199 42.904-15.597 59.638-10.398 16.733-24.859 27.438-34.097 30.767-9.239 3.328-13.503 2.91-14.238 3.172-.736.264-12.637 3.725-21 .264-8.363-3.46-38.089-25.597-42.722-77.842C55.13 93.505 90.656 56.981 95.346 50.949c4.691-6.034 4.498-8.319 4.83-14.353.454-8.483.363-25.935.363-25.935s5.094 11.047 6.283 13.652c1.189 2.605 3.8 9.566 17.022 25.067 13.221 15.5 63.572 39.243 63.572 81.37" fill="#12924F"/>
  </symbol>
</svg>